<svg xmlns="http://www.w3.org/2000/svg" viewBox="0 0 100 100" fill="none">
  <defs>
    <linearGradient id="logo-gradient" x1="0%" y1="0%" x2="100%" y2="100%">
      <stop offset="0%" style="stop-color:#34d399;stop-opacity:1" />
      <stop offset="50%" style="stop-color:#22c55e;stop-opacity:1" />
      <stop offset="100%" style="stop-color:#16a34a;stop-opacity:1" />
    </linearGradient>
  </defs>
  
  <!-- Mountain silhouette -->
  <path d="M10 70 L25 45 L40 55 L60 35 L80 50 L90 70 Z" 
        fill="url(#logo-gradient)" 
        opacity="0.3"/>
  
  <!-- Walking path -->
  <path d="M15 75 Q35 65 55 70 T85 75" 
        stroke="url(#logo-gradient)" 
        stroke-width="2" 
        fill="none" 
        stroke-linecap="round"/>
  
  <!-- Footsteps -->
  <circle cx="25" cy="72" r="1.5" fill="url(#logo-gradient)" opacity="0.7"/>
  <circle cx="35" cy="68" r="1.5" fill="url(#logo-gradient)" opacity="0.7"/>
  <circle cx="45" cy="69" r="1.5" fill="url(#logo-gradient)" opacity="0.7"/>
  <circle cx="55" cy="71" r="1.5" fill="url(#logo-gradient)" opacity="0.7"/>
  <circle cx="65" cy="72" r="1.5" fill="url(#logo-gradient)" opacity="0.7"/>
  
  <!-- Sun/Moon circle -->
  <circle cx="75" cy="25" r="8" 
          stroke="url(#logo-gradient)" 
          stroke-width="2" 
          fill="none"/>
  
  <!-- Sun rays -->
  <g stroke="url(#logo-gradient)" stroke-width="1.5" stroke-linecap="round">
    <line x1="75" y1="10" x2="75" y2="14"/>
    <line x1="90" y1="25" x2="86" y2="25"/>
    <line x1="75" y1="40" x2="75" y2="36"/>
    <line x1="60" y1="25" x2="64" y2="25"/>
    <line x1="86.07" y1="14.93" x2="83.24" y2="17.76"/>
    <line x1="86.07" y1="35.07" x2="83.24" y2="32.24"/>
    <line x1="63.93" y1="35.07" x2="66.76" y2="32.24"/>
    <line x1="63.93" y1="14.93" x2="66.76" y2="17.76"/>
  </g>
  
  <!-- Tree silhouette -->
  <g fill="url(#logo-gradient)" opacity="0.4">
    <rect x="28" y="60" width="2" height="12"/>
    <circle cx="29" cy="58" r="4"/>
    <circle cx="26" cy="56" r="3"/>
    <circle cx="32" cy="56" r="3"/>
  </g>
  
  <!-- Meditation figure -->
  <g fill="url(#logo-gradient)" opacity="0.6">
    <circle cx="50" cy="45" r="3"/>
    <path d="M50 48 L50 58 M45 52 L50 55 L55 52"/>
  </g>
</svg>
